<?xml version="1.0" encoding="utf-8"?>
<!-- Generator: Adobe Illustrator 15.1.0, SVG Export Plug-In  -->
<!DOCTYPE svg PUBLIC "-//W3C//DTD SVG 1.1//EN" "http://www.w3.org/Graphics/SVG/1.1/DTD/svg11.dtd" [
	<!ENTITY ns_flows "http://ns.adobe.com/Flows/1.0/">
]>
<svg version="1.1"
	 xmlns="http://www.w3.org/2000/svg" xmlns:xlink="http://www.w3.org/1999/xlink" xmlns:a="http://ns.adobe.com/AdobeSVGViewerExtensions/3.0/"
	 x="0px" y="0px" width="452px" height="107px" viewBox="0 0.598 452 107"
	 overflow="visible" enable-background="new 0 0.598 452 107" xml:space="preserve">
<defs>
</defs>
<text transform="matrix(1.0466 0 0 1 130.3457 71.895)"><tspan x="0" y="0" fill="#121212" font-family="'SmytheSans-Bold'" font-size="45.3091">G</tspan><tspan x="33.438" y="0" fill="#121212" font-family="'SmytheSans-Bold'" font-size="45.3091" letter-spacing="1.911">R</tspan><tspan x="66.694" y="0" fill="#121212" font-family="'SmytheSans-Bold'" font-size="45.3091" letter-spacing="0.955">EE</tspan><tspan x="127.589" y="0" fill="#121212" font-family="'SmytheSans-Bold'" font-size="45.3091">N</tspan><tspan x="162.568" y="0" fill="#121212" font-family="'SmytheSans-Bold'" font-size="45.3091">S</tspan><tspan x="189.934" y="0" fill="#121212" font-family="'SmytheSans-Bold'" font-size="45.3091" letter-spacing="-4.777">T</tspan><tspan x="212.906" y="0" fill="#121212" font-family="'SmytheSans-Bold'" font-size="45.3091">A</tspan><tspan x="246.57" y="0" fill="#121212" font-family="'SmytheSans-Bold'" font-size="45.3091" letter-spacing="0.955">R</tspan><tspan x="278.694" y="0" fill="#121212" font-family="'SmytheSans-Bold'" font-size="45.3091" letter-spacing="1.911">T</tspan></text>
<g>
	<path fill="#7EB851" d="M90.487,32.183V49.65h18.869V0H60.6v18.996h18.195v-0.079L27.478,69.704
		c-1.747,1.731-1.165,3.146,1.295,3.146h16.835c4.239,0,5.09-0.644,7.62-3.176l37.26-37.57"/>
</g>
<g>
	<g>
		<g>
			<polygon fill="#030303" points="99.615,107.894 0,107.894 0,11.837 48.747,11.837 48.747,27.987 15.867,27.987 15.867,92.024 
				83.749,92.024 83.749,61.591 99.615,61.591 			"/>
		</g>
	</g>
</g>
</svg>
