<?xml version="1.0" encoding="utf-8"?>
<!-- Generator: Adobe Illustrator 15.1.0, SVG Export Plug-In  -->
<!DOCTYPE svg PUBLIC "-//W3C//DTD SVG 1.1//EN" "http://www.w3.org/Graphics/SVG/1.1/DTD/svg11.dtd" [
	<!ENTITY ns_flows "http://ns.adobe.com/Flows/1.0/">
]>
<svg version="1.1"
	 xmlns="http://www.w3.org/2000/svg" xmlns:xlink="http://www.w3.org/1999/xlink" xmlns:a="http://ns.adobe.com/AdobeSVGViewerExtensions/3.0/"
	 x="0px" y="0px" width="388px" height="107px" viewBox="0 -20.169 388 107"
	 overflow="visible" enable-background="new 0 -20.169 388 107" xml:space="preserve">
<defs>
</defs>
<path fill="#253458" d="M352.785,30.73V13.044h14.486c4.713,0,8.799,3.911,8.799,8.622c0,4.976-4.086,9.064-8.799,9.064H352.785z
	 M341.145,62.903c0,0.889,0.711,1.688,1.687,1.688h8.177c0.889,0,1.689-0.799,1.689-1.688V40.241h9.863l11.821,23.551
	c0.177,0.355,0.62,0.799,1.421,0.799h9.332c1.51,0,2.133-1.422,1.51-2.574L374.47,39.441c7.733-3.11,13.155-9.776,13.155-17.952
	c0-10.577-8.711-19.107-19.376-19.107h-25.418c-0.976,0-1.687,0.8-1.687,1.688V62.903z M289.573,62.903
	c0,0.889,0.712,1.688,1.69,1.688h36.172c0.977,0,1.688-0.799,1.688-1.688v-7.287c0-0.889-0.711-1.689-1.688-1.689h-26.309V38.374
	h24.11c0.889,0,1.689-0.712,1.689-1.688V29.31c0-0.889-0.801-1.69-1.689-1.69h-24.11V13.044h26.309c0.977,0,1.688-0.799,1.688-1.688
	V4.069c0-0.887-0.711-1.688-1.688-1.688h-36.172c-0.979,0-1.69,0.8-1.69,1.688V62.903z M222.025,64.239
	c0.177,0.709,0.889,1.242,1.6,1.242h1.422c0.889,0,1.243-0.443,1.512-0.979l15.729-40.26h0.446l15.906,40.26
	c0.176,0.535,0.711,0.979,1.512,0.979h1.423c0.708,0,1.42-0.533,1.6-1.242l16.794-59.725c0.358-1.245-0.354-2.132-1.599-2.132
	h-8.175c-0.713,0-1.423,0.622-1.6,1.245l-9.067,35.459h-0.354L244.955,2.47c-0.18-0.533-0.622-0.977-1.513-0.977h-1.599
	c-0.889,0-1.333,0.443-1.508,0.977l-14.135,36.616h-0.353l-9.244-35.459c-0.179-0.623-0.888-1.245-1.6-1.245h-8.176
	c-1.244,0-1.955,0.888-1.6,2.132L222.025,64.239z M85.983,31.175V13.312h10.308c4.978,0,9.155,3.732,9.155,8.62
	c0,5.244-4.178,9.243-9.155,9.243H85.983z M74.43,62.903c0,0.889,0.711,1.688,1.688,1.688h8.177c0.889,0,1.688-0.799,1.688-1.688
	V42.018h11.108c10.842,0,19.819-8.976,19.819-19.996c0-10.753-8.978-19.64-19.907-19.64H76.118c-0.978,0-1.688,0.8-1.688,1.688
	V62.903z M11.554,33.575c0-11.198,9.153-20.53,20.352-20.53s20.44,9.332,20.44,20.53c0,11.197-9.242,20.352-20.44,20.352
	S11.554,44.771,11.554,33.575 M0,33.575c0,17.776,14.13,31.906,31.905,31.906s31.994-14.13,31.994-31.906
	c0-17.774-14.219-32.082-31.994-32.082S0,15.801,0,33.575"/>
<path fill="#1486CA" d="M181.715,0h-31.584l3.294,6.24l0.01,0.004c0.142,0.307,0.362,0.583,0.663,0.787
	c0.513,0.349,1.336,0.324,1.341,0.324h24.368c3.685,2.285,14.136,10.184,14.136,26.134l-0.005-0.027
	c0,12.934-7.19,20.591-11.774,24.246c-0.005,0.004-0.007,0.01-0.01,0.014c-0.454,0.357-0.753,0.904-0.753,1.527
	c0,0.365,0.104,0.703,0.281,0.994v0.012l2.94,4.957c5.451-3.686,16.669-13.488,16.669-31.75l0.002,0.027
	C201.293,9.368,181.715,0,181.715,0"/>
<path fill="#1486CA" d="M173.357,60.725c0,0-0.006-0.002-0.007-0.004c-0.144-0.307-0.362-0.584-0.666-0.787
	c-0.516-0.346-1.09-0.316-1.09-0.316h-25.098c-3.684-2.285-14.135-10.18-14.135-26.129c0-12.936,7.028-20.157,11.611-23.811
	c0.003-0.006,0.004-0.008,0.009-0.012c0.454-0.358,0.753-0.906,0.753-1.529c0-0.365-0.104-0.7-0.28-0.993V7.137l-2.777-5.399
	c-5.45,3.686-16.669,13.487-16.669,31.75c0,24.119,19.578,33.484,19.578,33.484h32.144L173.357,60.725z"/>
<path fill="#1486CA" d="M170.168,41.916v2.209c0,3.655-3.022,6.623-6.75,6.623c-3.726,0-6.745-2.968-6.745-6.623v-2.209H170.168z"/>
<path fill="#1486CA" d="M176.396,33.863V18.501c0-1.01-0.781-1.83-1.737-1.83h-3.825v17.192H176.396z"/>
<path fill="#1486CA" d="M156.243,33.863V18.501c0-1.01-0.78-1.83-1.739-1.83h-3.822v17.191L156.243,33.863z"/>
</svg>
