<?xml version="1.0" encoding="utf-8"?>
<!-- Generator: Adobe Illustrator 15.1.0, SVG Export Plug-In  -->
<!DOCTYPE svg PUBLIC "-//W3C//DTD SVG 1.1//EN" "http://www.w3.org/Graphics/SVG/1.1/DTD/svg11.dtd" [
	<!ENTITY ns_flows "http://ns.adobe.com/Flows/1.0/">
]>
<svg version="1.1"
	 xmlns="http://www.w3.org/2000/svg" xmlns:xlink="http://www.w3.org/1999/xlink" xmlns:a="http://ns.adobe.com/AdobeSVGViewerExtensions/3.0/"
	 x="0px" y="0px" width="452px" height="107px" viewBox="0 0.6 452 107" overflow="visible" enable-background="new 0 0.6 452 107"
	 xml:space="preserve">
<defs>
</defs>
<path fill="#121212" d="M149.1,72.5c-10.1,0-16.9-6.7-16.9-16.2v0c0-9.3,7-16.2,17-16.2c5.1,0,8.9,1.2,12.4,3.6
	c-0.8,2-1.5,4.1-2.3,6.2c-2.8-1.3-6.5-3.1-10-3.1c-5.6,0-9.4,3.9-9.4,9.5v0c0,5.6,3.5,9.6,9.2,9.6c3.1,0,6.7-2,7.2-5.8h-8V54h15.2
	V63C162,68.6,156.6,72.5,149.1,72.5z"/>
<path fill="#121212" d="M189.5,71.9l-7.1-10.1h-5.7v10.1h-7.3V40.2h15.2c7.8,0,12.5,3.9,12.5,10.5v0.1c0,5.1-2.9,8.3-7.1,9.8
	l8.1,11.3H189.5z M189.6,51c0-3-2.2-4.5-5.7-4.5h-7.3v9.1h7.4C187.6,55.6,189.6,53.8,189.6,51L189.6,51z"/>
<path fill="#121212" d="M203.5,71.9V40.7h24.2V47H211v6h15v6.3h-15v6.3h16.8v6.3H203.5z"/>
<path fill="#121212" d="M235.3,71.9V40.7h24.2V47h-16.7v6h15v6.3h-15v6.3h16.8v6.3H235.3z"/>
<path fill="#121212" d="M289.3,71.9l-14.7-19.5v19.5h-7.4V40.7h7.2l14.5,19.1V40.7h7.4v31.2H289.3z"/>
<path fill="#121212" d="M314.7,72.4c-4.3,0-8.8-1.2-12.4-3.5c0.7-1.9,1.5-3.9,2.2-5.9c2.7,2,6.9,3,10.4,3c2.7,0,4.8-1,4.8-2.9
	c0-2.1-2.5-2.7-6.4-3.7c-6.3-1.6-10.8-3.4-10.8-9.6v0c0-6.3,5.4-9.7,12.4-9.7c4.2,0,7.7,1,11,3c-0.7,2-1.3,4-1.9,6.1
	c-3-1.7-6.2-2.6-9.4-2.6c-3,0-4.4,1.4-4.4,2.7c0,2.4,3.6,3,7.7,4.1c5.8,1.4,9.4,3.9,9.4,9.2v0C327.3,69.1,321.9,72.4,314.7,72.4z"/>
<path fill="#121212" d="M347.7,47.2v24.7h-7.5V47.2h-10v-6.5h27.6v6.5H347.7z"/>
<path fill="#121212" d="M380,71.9l-2.6-6.4h-13.3c-0.8,2.1-1.7,4.3-2.5,6.4h-7.9c0.9-2,11.9-28.4,13-31.3h8.1
	c1.7,3.9,12,28.9,13,31.3H380z M370.8,48.6c-1.4,3.7-2.8,7.3-4.3,10.9h8.7C373.7,55.9,372.2,52.2,370.8,48.6z"/>
<path fill="#121212" d="M412.5,71.9l-7.1-10.1h-5.7v10.1h-7.3V40.2h15.2c7.8,0,12.5,3.9,12.5,10.5v0.1c0,5.1-2.9,8.3-7.1,9.8
	l8.1,11.3H412.5z M412.7,51c0-3-2.2-4.5-5.7-4.5h-7.3v9.1h7.4C410.7,55.6,412.7,53.8,412.7,51L412.7,51z"/>
<path fill="#121212" d="M440.6,47.2v24.7H433V47.2h-10v-6.5h27.6v6.5H440.6z"/>
<g>
	<path fill="#7EB851" d="M90.5,32.2v17.5h18.9V0H60.6v19h18.2v-0.1L27.5,69.7c-1.7,1.7-1.2,3.1,1.3,3.1h16.8c4.2,0,5.1-0.6,7.6-3.2
		L90.5,32.2"/>
</g>
<g>
	<g>
		<g>
			<polygon fill="#030303" points="99.6,107.9 0,107.9 0,11.8 48.7,11.8 48.7,28 15.9,28 15.9,92 83.7,92 83.7,61.6 99.6,61.6 			
				"/>
		</g>
	</g>
</g>
</svg>
