<?xml version="1.0" encoding="utf-8"?>
<!-- Generator: Adobe Illustrator 15.1.0, SVG Export Plug-In  -->
<!DOCTYPE svg PUBLIC "-//W3C//DTD SVG 1.1//EN" "http://www.w3.org/Graphics/SVG/1.1/DTD/svg11.dtd" [
	<!ENTITY ns_flows "http://ns.adobe.com/Flows/1.0/">
]>
<svg version="1.1"
	 xmlns="http://www.w3.org/2000/svg" xmlns:xlink="http://www.w3.org/1999/xlink" xmlns:a="http://ns.adobe.com/AdobeSVGViewerExtensions/3.0/"
	 x="0px" y="0px" width="599px" height="107px" viewBox="0 -19.993 599 107"
	 overflow="visible" enable-background="new 0 -19.993 599 107" xml:space="preserve">
<defs>
</defs>
<path fill="#6D6D6D" d="M19.415,6.48H12.94V0h6.475V6.48z M32.363,0h-6.482v6.48h6.482V0z M45.296,0h-6.467v6.48h6.467V0z M84.125,0
	h-6.48v6.48h6.48V0z M97.058,0h-6.48v6.48h6.48V0z M110.006,0h-6.474v6.48h6.474V0z M161.763,0h-6.48v6.48h6.48V0z M174.711,0h-6.48
	v6.48h6.48V0z M187.637,0h-6.466v6.48h6.466V0z M226.473,0h-6.481v6.48h6.481V0z M239.4,0h-6.488v6.48h6.488V0z M265.281,0h-6.459
	v6.48h6.459V0z M278.229,0h-6.475v6.48h6.475V0z M317.059,0h-6.48v6.48h6.48V0z M329.998,0h-6.487v6.48h6.487V0z M342.926,0h-6.487
	v6.48h6.487V0z M381.748,0h-6.488v6.48h6.488V0z M394.682,0h-6.474v6.48h6.474V0z M407.615,0h-6.473v6.48h6.473V0z M420.557,0
	h-6.469v6.48h6.469V0z M472.312,0h-6.48v6.48h6.48V0z M485.259,0h-6.48v6.48h6.48V0z M498.192,0h-6.473v6.48h6.473V0z M511.148,0
	h-6.482v6.48h6.482V0z M6.474,12.968H0v6.475h6.474V12.968z M19.415,12.968H12.94v6.475h6.475V12.968z M71.191,12.968h-6.487v6.475
	h6.487V12.968z M84.125,12.968h-6.48v6.475h6.48V12.968z M110.006,12.968h-6.474v6.475h6.474V12.968z M122.947,12.968h-6.481v6.475
	h6.481V12.968z M148.822,12.968h-6.48v6.475h6.48V12.968z M161.763,12.968h-6.48v6.475h6.48V12.968z M187.637,12.968h-6.466v6.475
	h6.466V12.968z M200.578,12.968h-6.474v6.475h6.474V12.968z M226.473,12.968h-6.481v6.475h6.481V12.968z M239.4,12.968h-6.488v6.475
	h6.488V12.968z M265.274,12.968h-6.453v6.475h6.453V12.968z M278.229,12.968h-6.475v6.475h6.475V12.968z M304.103,12.968h-6.466
	v6.475h6.466V12.968z M317.059,12.968h-6.48v6.475h6.48V12.968z M342.926,12.961h-6.487v6.481h6.487V12.961z M355.867,12.961h-6.481
	v6.481h6.481V12.961z M381.748,12.961h-6.488v6.481h6.488V12.961z M394.682,12.961h-6.474v6.481h6.474V12.961z M420.557,12.961
	h-6.469v6.481h6.469V12.961z M433.496,12.961h-6.473v6.481h6.473V12.961z M459.364,12.961h-6.474v6.481h6.474V12.961z
	 M472.312,12.961h-6.48v6.481h6.48V12.961z M511.148,12.961h-6.482v6.481h6.482V12.961z M6.474,25.943H0v6.467h6.474V25.943z
	 M19.415,25.943H12.94v6.467h6.475V25.943z M32.363,25.937l-6.482,0.007v6.467h6.482V25.937z M45.296,25.937h-6.467v6.474h6.467
	V25.937z M71.191,25.937h-6.487v6.474h6.487V25.937z M84.125,25.937h-6.48v6.474h6.48V25.937z M97.058,25.937h-6.48v6.474h6.48
	V25.937z M110.006,25.937h-6.474v6.474h6.474V25.937z M122.947,25.937h-6.481v6.474h6.481V25.937z M148.822,25.937h-6.48v6.474h6.48
	V25.937z M161.763,25.937h-6.48v6.474h6.48V25.937z M187.637,25.937h-6.466v6.474h6.466V25.937z M200.578,25.937h-6.474v6.474h6.474
	V25.937z M226.473,25.937h-6.481v6.474h6.481V25.937z M239.4,25.937h-6.488v6.474h6.488V25.937z M265.274,25.937h-6.453v6.474h6.453
	V25.937z M278.229,25.937h-6.475l-0.006,6.474h6.48V25.937z M304.103,25.937h-6.466v6.474h6.466V25.937z M317.051,25.937h-6.473
	v6.474h6.473V25.937z M329.998,25.937h-6.487v6.474h6.487V25.937z M342.926,25.937h-6.487v6.474h6.487V25.937z M355.867,25.937
	h-6.481v6.474h6.481V25.937z M381.748,25.937h-6.488v6.474h6.488V25.937z M394.682,25.937h-6.474v6.474h6.474V25.937z
	 M420.557,25.937h-6.469v6.474h6.469V25.937z M433.496,25.937h-6.473v6.474h6.473V25.937z M459.364,25.937h-6.474v6.474h6.474
	V25.937z M472.312,25.937h-6.48v6.474h6.48V25.937z M32.363,38.905h-6.482v6.48h6.482V38.905z M45.296,38.905h-6.467v6.48h6.467
	V38.905z M71.191,38.905h-6.487v6.48h6.487V38.905z M84.125,38.905h-6.48v6.48h6.48V38.905z M148.822,38.905h-6.48v6.48h6.48V38.905
	z M161.763,38.905h-6.48v6.48h6.48V38.905z M187.637,38.905h-6.466v6.48h6.466V38.905z M200.578,38.905h-6.474v6.48h6.474V38.905z
	 M226.473,38.905h-6.481v6.48h6.481V38.905z M239.4,38.905h-6.488v6.48h6.488V38.905z M265.274,38.905h-6.453v6.48h6.453V38.905z
	 M278.229,38.905h-6.48v6.48h6.48V38.905z M304.103,38.905h-6.466v6.48h6.466V38.905z M317.051,38.905h-6.473v6.48h6.473V38.905z
	 M381.748,38.905h-6.488v6.48h6.488V38.905z M394.682,38.905h-6.474v6.48h6.474V38.905z M420.557,38.905h-6.469v6.48h6.469V38.905z
	 M433.496,38.905h-6.473v6.48h6.473V38.905z M459.364,38.905h-6.474v6.48h6.474V38.905z M472.312,38.905h-6.48v6.48h6.48V38.905z
	 M511.148,38.905h-6.482v6.48h6.482V38.905z M6.474,51.88H0v6.474h6.474V51.88z M19.415,51.88H12.94v6.474h6.475V51.88z
	 M32.363,51.873l-6.482,0.007v6.474h6.482V51.873z M84.125,51.873h-6.48v6.48h6.48V51.873z M97.058,51.873h-6.48v6.48h6.48V51.873z
	 M110.006,51.873h-6.474v6.48h6.474V51.873z M122.975,51.873h-6.487v6.48h6.487V51.873z M161.763,51.873h-6.48v6.48h6.48V51.873z
	 M174.711,51.873h-6.48v6.48h6.48V51.873z M187.637,51.873h-6.466v6.48h6.466V51.873z M239.4,51.873h-6.488v6.48h6.488V51.873z
	 M252.348,51.873h-6.48v6.48h6.48V51.873z M265.274,51.873h-6.453v6.48h6.453V51.873z M278.229,51.873h-6.48v6.48h6.48V51.873z
	 M317.051,51.873h-6.473v6.48h6.473V51.873z M329.998,51.873h-6.487v6.48h6.487V51.873z M342.926,51.873h-6.487v6.48h6.487V51.873z
	 M355.867,51.873h-6.481v6.48h6.481V51.873z M549.796,0h-6.473v6.48h6.473V0z M562.737,0h-6.48v6.48h6.48V0z M575.671,0h-6.467v6.48
	h6.467V0z M536.851,12.961h-6.475v6.481h6.475V12.961z M549.796,12.961h-6.473v6.481h6.473V12.961z M575.671,12.961h-6.467v6.481
	h6.467V12.961z M588.612,12.961h-6.48v6.481h6.48V12.961z M536.851,25.937h-6.475v6.474h6.475V25.937z M549.796,25.937h-6.473v6.474
	h6.473V25.937z M562.737,25.937h-6.48v6.474h6.48V25.937z M575.671,25.937h-6.467v6.474h6.467V25.937z M588.612,25.937h-6.48v6.474
	h6.48V25.937z M536.851,38.905h-6.475v6.48h6.475V38.905z M549.796,38.905h-6.473v6.48h6.473V38.905z M549.796,51.88h-6.473v6.474
	h6.473V51.88z M562.737,51.88h-6.48v6.474h6.48V51.88z M575.671,51.88h-6.467v6.474h6.467V51.88z M588.612,51.88h-6.48v6.474h6.48
	V51.88z M381.748,51.873h-6.488v6.48h6.488V51.873z M394.682,51.873h-6.474v6.48h6.474V51.873z M420.557,51.873h-6.469v6.48h6.469
	V51.873z M433.496,51.873h-6.473v6.48h6.473V51.873z M472.312,51.873h-6.48v6.48h6.48V51.873z M485.259,51.88l-6.48-0.007v6.48h6.48
	V51.88z M498.192,51.88h-6.473v6.474h6.473V51.88z M511.148,51.88h-6.482v6.474h6.482V51.88z M187.637,64.841h-6.466v6.488h6.466
	V64.841z M200.578,64.841h-6.474v6.488h6.474V64.841z"/>
</svg>
